<svg xmlns="http://www.w3.org/2000/svg" viewBox="0 0 3840 1536" width="3840" height="1536">
<defs><radialGradient id="sky" cx="55%" cy="20%" r="90%"><stop stop-color="#27366c"/><stop offset=".45" stop-color="#111a46"/><stop offset="1" stop-color="#050a22"/></radialGradient>
<linearGradient id="glow" x1="0" y1="0" x2="1" y2="0"><stop stop-color="#d9c2a6" stop-opacity="0"/><stop offset=".5" stop-color="#d9c2a6" stop-opacity=".18"/><stop offset="1" stop-color="#d9c2a6" stop-opacity="0"/></linearGradient></defs>
<rect width="3840" height="1536" fill="#07102a"/>
<rect width="3840" height="1536" fill="url(#sky)"/>
<ellipse cx="2100" cy="430" rx="1250" ry="180" fill="url(#glow)" transform="rotate(-24 2100 430)"/>
<circle cx="0" cy="0" r="1.5" fill="#f1eee1" opacity="0.45"/>
<circle cx="977" cy="593" r="2" fill="#f1eee1" opacity="0.55"/>
<circle cx="1954" cy="206" r="2.5" fill="#f1eee1" opacity="0.65"/>
<circle cx="2931" cy="799" r="3" fill="#f1eee1" opacity="0.75"/>
<circle cx="68" cy="412" r="1.5" fill="#f1eee1" opacity="0.8500000000000001"/>
<circle cx="1045" cy="25" r="2" fill="#f1eee1" opacity="0.45"/>
<circle cx="2022" cy="618" r="2.5" fill="#f1eee1" opacity="0.55"/>
<circle cx="2999" cy="231" r="3" fill="#f1eee1" opacity="0.65"/>
<circle cx="136" cy="824" r="1.5" fill="#f1eee1" opacity="0.75"/>
<circle cx="1113" cy="437" r="2" fill="#f1eee1" opacity="0.8500000000000001"/>
<circle cx="2090" cy="50" r="2.5" fill="#f1eee1" opacity="0.45"/>
<circle cx="3067" cy="643" r="3" fill="#f1eee1" opacity="0.55"/>
<circle cx="204" cy="256" r="1.5" fill="#f1eee1" opacity="0.65"/>
<circle cx="1181" cy="849" r="2" fill="#f1eee1" opacity="0.75"/>
<circle cx="2158" cy="462" r="2.5" fill="#f1eee1" opacity="0.8500000000000001"/>
<circle cx="3135" cy="75" r="3" fill="#f1eee1" opacity="0.45"/>
<circle cx="272" cy="668" r="1.5" fill="#f1eee1" opacity="0.55"/>
<circle cx="1249" cy="281" r="2" fill="#f1eee1" opacity="0.65"/>
<circle cx="2226" cy="874" r="2.5" fill="#f1eee1" opacity="0.75"/>
<circle cx="3203" cy="487" r="3" fill="#f1eee1" opacity="0.8500000000000001"/>
<circle cx="340" cy="100" r="1.5" fill="#f1eee1" opacity="0.45"/>
<circle cx="1317" cy="693" r="2" fill="#f1eee1" opacity="0.55"/>
<circle cx="2294" cy="306" r="2.5" fill="#f1eee1" opacity="0.65"/>
<circle cx="3271" cy="899" r="3" fill="#f1eee1" opacity="0.75"/>
<circle cx="408" cy="512" r="1.5" fill="#f1eee1" opacity="0.8500000000000001"/>
<circle cx="1385" cy="125" r="2" fill="#f1eee1" opacity="0.45"/>
<circle cx="2362" cy="718" r="2.5" fill="#f1eee1" opacity="0.55"/>
<circle cx="3339" cy="331" r="3" fill="#f1eee1" opacity="0.65"/>
<circle cx="476" cy="924" r="1.5" fill="#f1eee1" opacity="0.75"/>
<circle cx="1453" cy="537" r="2" fill="#f1eee1" opacity="0.8500000000000001"/>
<circle cx="2430" cy="150" r="2.5" fill="#f1eee1" opacity="0.45"/>
<circle cx="3407" cy="743" r="3" fill="#f1eee1" opacity="0.55"/>
<circle cx="544" cy="356" r="1.5" fill="#f1eee1" opacity="0.65"/>
<circle cx="1521" cy="949" r="2" fill="#f1eee1" opacity="0.75"/>
<circle cx="2498" cy="562" r="2.5" fill="#f1eee1" opacity="0.8500000000000001"/>
<circle cx="3475" cy="175" r="3" fill="#f1eee1" opacity="0.45"/>
<circle cx="612" cy="768" r="1.5" fill="#f1eee1" opacity="0.55"/>
<circle cx="1589" cy="381" r="2" fill="#f1eee1" opacity="0.65"/>
<circle cx="2566" cy="974" r="2.5" fill="#f1eee1" opacity="0.75"/>
<circle cx="3543" cy="587" r="3" fill="#f1eee1" opacity="0.8500000000000001"/>
<circle cx="680" cy="200" r="1.5" fill="#f1eee1" opacity="0.45"/>
<circle cx="1657" cy="793" r="2" fill="#f1eee1" opacity="0.55"/>
<circle cx="2634" cy="406" r="2.5" fill="#f1eee1" opacity="0.65"/>
<circle cx="3611" cy="19" r="3" fill="#f1eee1" opacity="0.75"/>
<circle cx="748" cy="612" r="1.5" fill="#f1eee1" opacity="0.8500000000000001"/>
<circle cx="1725" cy="225" r="2" fill="#f1eee1" opacity="0.45"/>
<circle cx="2702" cy="818" r="2.5" fill="#f1eee1" opacity="0.55"/>
<circle cx="3679" cy="431" r="3" fill="#f1eee1" opacity="0.65"/>
<circle cx="816" cy="44" r="1.5" fill="#f1eee1" opacity="0.75"/>
<circle cx="1793" cy="637" r="2" fill="#f1eee1" opacity="0.8500000000000001"/>
<circle cx="2770" cy="250" r="2.5" fill="#f1eee1" opacity="0.45"/>
<circle cx="3747" cy="843" r="3" fill="#f1eee1" opacity="0.55"/>
<circle cx="884" cy="456" r="1.5" fill="#f1eee1" opacity="0.65"/>
<circle cx="1861" cy="69" r="2" fill="#f1eee1" opacity="0.75"/>
<circle cx="2838" cy="662" r="2.5" fill="#f1eee1" opacity="0.8500000000000001"/>
<circle cx="3815" cy="275" r="3" fill="#f1eee1" opacity="0.45"/>
<circle cx="952" cy="868" r="1.5" fill="#f1eee1" opacity="0.55"/>
<circle cx="1929" cy="481" r="2" fill="#f1eee1" opacity="0.65"/>
<circle cx="2906" cy="94" r="2.5" fill="#f1eee1" opacity="0.75"/>
<circle cx="43" cy="687" r="3" fill="#f1eee1" opacity="0.8500000000000001"/>
<circle cx="1020" cy="300" r="1.5" fill="#f1eee1" opacity="0.45"/>
<circle cx="1997" cy="893" r="2" fill="#f1eee1" opacity="0.55"/>
<circle cx="2974" cy="506" r="2.5" fill="#f1eee1" opacity="0.65"/>
<circle cx="111" cy="119" r="3" fill="#f1eee1" opacity="0.75"/>
<circle cx="1088" cy="712" r="1.5" fill="#f1eee1" opacity="0.8500000000000001"/>
<circle cx="2065" cy="325" r="2" fill="#f1eee1" opacity="0.45"/>
<circle cx="3042" cy="918" r="2.5" fill="#f1eee1" opacity="0.55"/>
<circle cx="179" cy="531" r="3" fill="#f1eee1" opacity="0.65"/>
<circle cx="1156" cy="144" r="1.5" fill="#f1eee1" opacity="0.75"/>
<circle cx="2133" cy="737" r="2" fill="#f1eee1" opacity="0.8500000000000001"/>
<circle cx="3110" cy="350" r="2.5" fill="#f1eee1" opacity="0.45"/>
<circle cx="247" cy="943" r="3" fill="#f1eee1" opacity="0.55"/>
<circle cx="1224" cy="556" r="1.5" fill="#f1eee1" opacity="0.65"/>
<circle cx="2201" cy="169" r="2" fill="#f1eee1" opacity="0.75"/>
<circle cx="3178" cy="762" r="2.5" fill="#f1eee1" opacity="0.8500000000000001"/>
<circle cx="315" cy="375" r="3" fill="#f1eee1" opacity="0.45"/>
<circle cx="1292" cy="968" r="1.5" fill="#f1eee1" opacity="0.55"/>
<circle cx="2269" cy="581" r="2" fill="#f1eee1" opacity="0.65"/>
<circle cx="3246" cy="194" r="2.5" fill="#f1eee1" opacity="0.75"/>
<circle cx="383" cy="787" r="3" fill="#f1eee1" opacity="0.8500000000000001"/>
<circle cx="1360" cy="400" r="1.5" fill="#f1eee1" opacity="0.45"/>
<circle cx="2337" cy="13" r="2" fill="#f1eee1" opacity="0.55"/>
<circle cx="3314" cy="606" r="2.5" fill="#f1eee1" opacity="0.65"/>
<circle cx="451" cy="219" r="3" fill="#f1eee1" opacity="0.75"/>
<circle cx="1428" cy="812" r="1.5" fill="#f1eee1" opacity="0.8500000000000001"/>
<circle cx="2405" cy="425" r="2" fill="#f1eee1" opacity="0.45"/>
<circle cx="3382" cy="38" r="2.5" fill="#f1eee1" opacity="0.55"/>
<circle cx="519" cy="631" r="3" fill="#f1eee1" opacity="0.65"/>
<circle cx="1496" cy="244" r="1.5" fill="#f1eee1" opacity="0.75"/>
<circle cx="2473" cy="837" r="2" fill="#f1eee1" opacity="0.8500000000000001"/>
<circle cx="3450" cy="450" r="2.5" fill="#f1eee1" opacity="0.45"/>
<circle cx="587" cy="63" r="3" fill="#f1eee1" opacity="0.55"/>
<circle cx="1564" cy="656" r="1.5" fill="#f1eee1" opacity="0.65"/>
<circle cx="2541" cy="269" r="2" fill="#f1eee1" opacity="0.75"/>
<circle cx="3518" cy="862" r="2.5" fill="#f1eee1" opacity="0.8500000000000001"/>
<circle cx="655" cy="475" r="3" fill="#f1eee1" opacity="0.45"/>
<circle cx="1632" cy="88" r="1.5" fill="#f1eee1" opacity="0.55"/>
<circle cx="2609" cy="681" r="2" fill="#f1eee1" opacity="0.65"/>
<circle cx="3586" cy="294" r="2.5" fill="#f1eee1" opacity="0.75"/>
<circle cx="723" cy="887" r="3" fill="#f1eee1" opacity="0.8500000000000001"/>
<circle cx="1700" cy="500" r="1.5" fill="#f1eee1" opacity="0.45"/>
<circle cx="2677" cy="113" r="2" fill="#f1eee1" opacity="0.55"/>
<circle cx="3654" cy="706" r="2.5" fill="#f1eee1" opacity="0.65"/>
<circle cx="791" cy="319" r="3" fill="#f1eee1" opacity="0.75"/>
<circle cx="1768" cy="912" r="1.5" fill="#f1eee1" opacity="0.8500000000000001"/>
<circle cx="2745" cy="525" r="2" fill="#f1eee1" opacity="0.45"/>
<circle cx="3722" cy="138" r="2.5" fill="#f1eee1" opacity="0.55"/>
<circle cx="859" cy="731" r="3" fill="#f1eee1" opacity="0.65"/>
<circle cx="1836" cy="344" r="1.5" fill="#f1eee1" opacity="0.75"/>
<circle cx="2813" cy="937" r="2" fill="#f1eee1" opacity="0.8500000000000001"/>
<circle cx="3790" cy="550" r="2.5" fill="#f1eee1" opacity="0.45"/>
<circle cx="927" cy="163" r="3" fill="#f1eee1" opacity="0.55"/>
<circle cx="1904" cy="756" r="1.5" fill="#f1eee1" opacity="0.65"/>
<circle cx="2881" cy="369" r="2" fill="#f1eee1" opacity="0.75"/>
<circle cx="18" cy="962" r="2.5" fill="#f1eee1" opacity="0.8500000000000001"/>
<circle cx="995" cy="575" r="3" fill="#f1eee1" opacity="0.45"/>
<circle cx="1972" cy="188" r="1.5" fill="#f1eee1" opacity="0.55"/>
<circle cx="2949" cy="781" r="2" fill="#f1eee1" opacity="0.65"/>
<circle cx="86" cy="394" r="2.5" fill="#f1eee1" opacity="0.75"/>
<circle cx="1063" cy="7" r="3" fill="#f1eee1" opacity="0.8500000000000001"/>
<circle cx="2040" cy="600" r="1.5" fill="#f1eee1" opacity="0.45"/>
<circle cx="3017" cy="213" r="2" fill="#f1eee1" opacity="0.55"/>
<circle cx="154" cy="806" r="2.5" fill="#f1eee1" opacity="0.65"/>
<circle cx="1131" cy="419" r="3" fill="#f1eee1" opacity="0.75"/>
<circle cx="2108" cy="32" r="1.5" fill="#f1eee1" opacity="0.8500000000000001"/>
<circle cx="3085" cy="625" r="2" fill="#f1eee1" opacity="0.45"/>
<circle cx="222" cy="238" r="2.5" fill="#f1eee1" opacity="0.55"/>
<circle cx="1199" cy="831" r="3" fill="#f1eee1" opacity="0.65"/>
<circle cx="2176" cy="444" r="1.5" fill="#f1eee1" opacity="0.75"/>
<circle cx="3153" cy="57" r="2" fill="#f1eee1" opacity="0.8500000000000001"/>
<circle cx="290" cy="650" r="2.5" fill="#f1eee1" opacity="0.45"/>
<circle cx="1267" cy="263" r="3" fill="#f1eee1" opacity="0.55"/>
<circle cx="2244" cy="856" r="1.5" fill="#f1eee1" opacity="0.65"/>
<circle cx="3221" cy="469" r="2" fill="#f1eee1" opacity="0.75"/>
<circle cx="358" cy="82" r="2.5" fill="#f1eee1" opacity="0.8500000000000001"/>
<circle cx="1335" cy="675" r="3" fill="#f1eee1" opacity="0.45"/>
<circle cx="2312" cy="288" r="1.5" fill="#f1eee1" opacity="0.55"/>
<circle cx="3289" cy="881" r="2" fill="#f1eee1" opacity="0.65"/>
<circle cx="426" cy="494" r="2.5" fill="#f1eee1" opacity="0.75"/>
<circle cx="1403" cy="107" r="3" fill="#f1eee1" opacity="0.8500000000000001"/>
<circle cx="2380" cy="700" r="1.5" fill="#f1eee1" opacity="0.45"/>
<circle cx="3357" cy="313" r="2" fill="#f1eee1" opacity="0.55"/>
<circle cx="494" cy="906" r="2.5" fill="#f1eee1" opacity="0.65"/>
<circle cx="1471" cy="519" r="3" fill="#f1eee1" opacity="0.75"/>
<circle cx="2448" cy="132" r="1.5" fill="#f1eee1" opacity="0.8500000000000001"/>
<circle cx="3425" cy="725" r="2" fill="#f1eee1" opacity="0.45"/>
<circle cx="562" cy="338" r="2.5" fill="#f1eee1" opacity="0.55"/>
<circle cx="1539" cy="931" r="3" fill="#f1eee1" opacity="0.65"/>
<circle cx="2516" cy="544" r="1.5" fill="#f1eee1" opacity="0.75"/>
<circle cx="3493" cy="157" r="2" fill="#f1eee1" opacity="0.8500000000000001"/>
<circle cx="630" cy="750" r="2.5" fill="#f1eee1" opacity="0.45"/>
<circle cx="1607" cy="363" r="3" fill="#f1eee1" opacity="0.55"/>
<circle cx="2584" cy="956" r="1.5" fill="#f1eee1" opacity="0.65"/>
<circle cx="3561" cy="569" r="2" fill="#f1eee1" opacity="0.75"/>
<circle cx="698" cy="182" r="2.5" fill="#f1eee1" opacity="0.8500000000000001"/>
<circle cx="1675" cy="775" r="3" fill="#f1eee1" opacity="0.45"/>
<circle cx="2652" cy="388" r="1.5" fill="#f1eee1" opacity="0.55"/>
<circle cx="3629" cy="1" r="2" fill="#f1eee1" opacity="0.65"/>
<circle cx="766" cy="594" r="2.5" fill="#f1eee1" opacity="0.75"/>
<circle cx="1743" cy="207" r="3" fill="#f1eee1" opacity="0.8500000000000001"/>
<circle cx="2720" cy="800" r="1.5" fill="#f1eee1" opacity="0.45"/>
<circle cx="3697" cy="413" r="2" fill="#f1eee1" opacity="0.55"/>
<circle cx="834" cy="26" r="2.5" fill="#f1eee1" opacity="0.65"/>
<circle cx="1811" cy="619" r="3" fill="#f1eee1" opacity="0.75"/>
<circle cx="2788" cy="232" r="1.5" fill="#f1eee1" opacity="0.8500000000000001"/>
<circle cx="3765" cy="825" r="2" fill="#f1eee1" opacity="0.45"/>
<circle cx="902" cy="438" r="2.5" fill="#f1eee1" opacity="0.55"/>
<circle cx="1879" cy="51" r="3" fill="#f1eee1" opacity="0.65"/>
<circle cx="2856" cy="644" r="1.5" fill="#f1eee1" opacity="0.75"/>
<circle cx="3833" cy="257" r="2" fill="#f1eee1" opacity="0.8500000000000001"/>
<circle cx="970" cy="850" r="2.5" fill="#f1eee1" opacity="0.45"/>
<circle cx="1947" cy="463" r="3" fill="#f1eee1" opacity="0.55"/>
<circle cx="2924" cy="76" r="1.5" fill="#f1eee1" opacity="0.65"/>
<circle cx="61" cy="669" r="2" fill="#f1eee1" opacity="0.75"/>
<circle cx="1038" cy="282" r="2.5" fill="#f1eee1" opacity="0.8500000000000001"/>
<circle cx="2015" cy="875" r="3" fill="#f1eee1" opacity="0.45"/>
<circle cx="2992" cy="488" r="1.5" fill="#f1eee1" opacity="0.55"/>
<circle cx="129" cy="101" r="2" fill="#f1eee1" opacity="0.65"/>
<circle cx="1106" cy="694" r="2.5" fill="#f1eee1" opacity="0.75"/>
<circle cx="2083" cy="307" r="3" fill="#f1eee1" opacity="0.8500000000000001"/>
<circle cx="3060" cy="900" r="1.5" fill="#f1eee1" opacity="0.45"/>
<circle cx="197" cy="513" r="2" fill="#f1eee1" opacity="0.55"/>
<circle cx="1174" cy="126" r="2.5" fill="#f1eee1" opacity="0.65"/>
<circle cx="2151" cy="719" r="3" fill="#f1eee1" opacity="0.75"/>
<circle cx="3128" cy="332" r="1.5" fill="#f1eee1" opacity="0.8500000000000001"/>
<circle cx="265" cy="925" r="2" fill="#f1eee1" opacity="0.45"/>
<circle cx="1242" cy="538" r="2.5" fill="#f1eee1" opacity="0.55"/>
<circle cx="2219" cy="151" r="3" fill="#f1eee1" opacity="0.65"/>
<circle cx="3196" cy="744" r="1.5" fill="#f1eee1" opacity="0.75"/>
<circle cx="333" cy="357" r="2" fill="#f1eee1" opacity="0.8500000000000001"/>
<circle cx="1310" cy="950" r="2.5" fill="#f1eee1" opacity="0.45"/>
<circle cx="2287" cy="563" r="3" fill="#f1eee1" opacity="0.55"/>
<circle cx="3264" cy="176" r="1.5" fill="#f1eee1" opacity="0.65"/>
<circle cx="401" cy="769" r="2" fill="#f1eee1" opacity="0.75"/>
<circle cx="1378" cy="382" r="2.5" fill="#f1eee1" opacity="0.8500000000000001"/>
<circle cx="2355" cy="975" r="3" fill="#f1eee1" opacity="0.45"/>
<circle cx="3332" cy="588" r="1.5" fill="#f1eee1" opacity="0.55"/>
<circle cx="469" cy="201" r="2" fill="#f1eee1" opacity="0.65"/>
<circle cx="1446" cy="794" r="2.5" fill="#f1eee1" opacity="0.75"/>
<circle cx="2423" cy="407" r="3" fill="#f1eee1" opacity="0.8500000000000001"/>
<circle cx="3400" cy="20" r="1.5" fill="#f1eee1" opacity="0.45"/>
<circle cx="537" cy="613" r="2" fill="#f1eee1" opacity="0.55"/>
<circle cx="1514" cy="226" r="2.5" fill="#f1eee1" opacity="0.65"/>
<circle cx="2491" cy="819" r="3" fill="#f1eee1" opacity="0.75"/>
<circle cx="3468" cy="432" r="1.5" fill="#f1eee1" opacity="0.8500000000000001"/>
<circle cx="605" cy="45" r="2" fill="#f1eee1" opacity="0.45"/>
<circle cx="1582" cy="638" r="2.5" fill="#f1eee1" opacity="0.55"/>
<circle cx="2559" cy="251" r="3" fill="#f1eee1" opacity="0.65"/>
<circle cx="3536" cy="844" r="1.5" fill="#f1eee1" opacity="0.75"/>
<circle cx="673" cy="457" r="2" fill="#f1eee1" opacity="0.8500000000000001"/>
<circle cx="1650" cy="70" r="2.5" fill="#f1eee1" opacity="0.45"/>
<circle cx="2627" cy="663" r="3" fill="#f1eee1" opacity="0.55"/>
<circle cx="3604" cy="276" r="1.5" fill="#f1eee1" opacity="0.65"/>
<circle cx="741" cy="869" r="2" fill="#f1eee1" opacity="0.75"/>
<circle cx="1718" cy="482" r="2.5" fill="#f1eee1" opacity="0.8500000000000001"/>
<circle cx="2695" cy="95" r="3" fill="#f1eee1" opacity="0.45"/>
<circle cx="3672" cy="688" r="1.5" fill="#f1eee1" opacity="0.55"/>
<circle cx="809" cy="301" r="2" fill="#f1eee1" opacity="0.65"/>
<circle cx="1786" cy="894" r="2.5" fill="#f1eee1" opacity="0.75"/>
<circle cx="2763" cy="507" r="3" fill="#f1eee1" opacity="0.8500000000000001"/>
<circle cx="3740" cy="120" r="1.5" fill="#f1eee1" opacity="0.45"/>
<circle cx="877" cy="713" r="2" fill="#f1eee1" opacity="0.55"/>
<circle cx="1854" cy="326" r="2.5" fill="#f1eee1" opacity="0.65"/>
<circle cx="2831" cy="919" r="3" fill="#f1eee1" opacity="0.75"/>
<circle cx="3808" cy="532" r="1.5" fill="#f1eee1" opacity="0.8500000000000001"/>
<circle cx="945" cy="145" r="2" fill="#f1eee1" opacity="0.45"/>
<circle cx="1922" cy="738" r="2.5" fill="#f1eee1" opacity="0.55"/>
<circle cx="2899" cy="351" r="3" fill="#f1eee1" opacity="0.65"/>
<circle cx="36" cy="944" r="1.5" fill="#f1eee1" opacity="0.75"/>
<circle cx="1013" cy="557" r="2" fill="#f1eee1" opacity="0.8500000000000001"/>
<circle cx="1990" cy="170" r="2.5" fill="#f1eee1" opacity="0.45"/>
<circle cx="2967" cy="763" r="3" fill="#f1eee1" opacity="0.55"/>
<circle cx="104" cy="376" r="1.5" fill="#f1eee1" opacity="0.65"/>
<circle cx="1081" cy="969" r="2" fill="#f1eee1" opacity="0.75"/>
<circle cx="2058" cy="582" r="2.5" fill="#f1eee1" opacity="0.8500000000000001"/>
<circle cx="3035" cy="195" r="3" fill="#f1eee1" opacity="0.45"/>
<circle cx="172" cy="788" r="1.5" fill="#f1eee1" opacity="0.55"/>
<circle cx="1149" cy="401" r="2" fill="#f1eee1" opacity="0.65"/>
<circle cx="2126" cy="14" r="2.5" fill="#f1eee1" opacity="0.75"/>
<circle cx="3103" cy="607" r="3" fill="#f1eee1" opacity="0.8500000000000001"/>
<circle cx="240" cy="220" r="1.5" fill="#f1eee1" opacity="0.45"/>
<circle cx="1217" cy="813" r="2" fill="#f1eee1" opacity="0.55"/>
<circle cx="2194" cy="426" r="2.5" fill="#f1eee1" opacity="0.65"/>
<circle cx="3171" cy="39" r="3" fill="#f1eee1" opacity="0.75"/>
<circle cx="308" cy="632" r="1.5" fill="#f1eee1" opacity="0.8500000000000001"/>
<circle cx="1285" cy="245" r="2" fill="#f1eee1" opacity="0.45"/>
<circle cx="2262" cy="838" r="2.5" fill="#f1eee1" opacity="0.55"/>
<circle cx="3239" cy="451" r="3" fill="#f1eee1" opacity="0.65"/>
<circle cx="376" cy="64" r="1.5" fill="#f1eee1" opacity="0.75"/>
<circle cx="1353" cy="657" r="2" fill="#f1eee1" opacity="0.8500000000000001"/>
<circle cx="2330" cy="270" r="2.5" fill="#f1eee1" opacity="0.45"/>
<circle cx="3307" cy="863" r="3" fill="#f1eee1" opacity="0.55"/>
<circle cx="444" cy="476" r="1.5" fill="#f1eee1" opacity="0.65"/>
<circle cx="1421" cy="89" r="2" fill="#f1eee1" opacity="0.75"/>
<circle cx="2398" cy="682" r="2.5" fill="#f1eee1" opacity="0.8500000000000001"/>
<circle cx="3375" cy="295" r="3" fill="#f1eee1" opacity="0.45"/>
<circle cx="512" cy="888" r="1.5" fill="#f1eee1" opacity="0.55"/>
<circle cx="1489" cy="501" r="2" fill="#f1eee1" opacity="0.65"/>
<circle cx="2466" cy="114" r="2.5" fill="#f1eee1" opacity="0.75"/>
<circle cx="3443" cy="707" r="3" fill="#f1eee1" opacity="0.8500000000000001"/>
<polygon points="0,1210 520,980 980,1140 1510,900 2070,1160 2670,930 3250,1110 3840,960 3840,1536 0,1536" fill="#121d3d"/>
<polygon points="0,1350 700,1180 1320,1300 2140,1100 3000,1320 3840,1170 3840,1536 0,1536" fill="#0a122b"/>
</svg>